<svg xmlns="http://www.w3.org/2000/svg" xmlns:xlink="http://www.w3.org/1999/xlink" width="529" height="454" viewBox="0 0 529 454">
  <defs>
    <clipPath id="clip-CloudNoBg">
      <rect width="529" height="454"/>
    </clipPath>
  </defs>
  <g id="CloudNoBg" clip-path="url(#clip-CloudNoBg)">
    <g id="Group_48" data-name="Group 48" transform="translate(-741.375 -741.339)">
      <g id="Group_46" data-name="Group 46" transform="translate(844.951 873.462)">
        <g id="Group_41" data-name="Group 41">
          <g id="Group_33" data-name="Group 33" transform="translate(3.164 3.162)">
            <path id="Path_19" data-name="Path 19" d="M1161.782,988.066c-.53,16.99-15.487,30.293-33.389,29.735a33.814,33.814,0,0,1-12.967-3c-7.193,7.628-16.936,12.186-27.518,11.855a34.116,34.116,0,0,1-14.033-3.489c-5.733,20.776-28.346,35.845-54.893,35.015-22.8-.711-41.986-12.95-49.757-29.773a2.09,2.09,0,0,0-.131-.315,1.839,1.839,0,0,1-.2.349c-4.244,7.453-13.174,12.425-23.322,12.11-11.451-.358-20.931-7.343-23.754-16.6-5.656,5.27-14.578,8.523-24.5,8.213-15.979-.5-28.783-10.1-29.423-21.714l-.072,0A22.235,22.235,0,1,1,869.221,966c.434.012.849.043,1.274.084a41.947,41.947,0,0,1,41.635-30.382c.726.024,1.454.064,2.179.131a44.563,44.563,0,0,1,57.05-27.983,56.926,56.926,0,0,1,108.611,22.429,33.462,33.462,0,0,1,16.186-3.53c17.151.535,30.8,13.578,31.468,29.585.9-.06,1.785-.06,2.687-.031C1148.217,956.866,1162.315,971.092,1161.782,988.066Z" transform="translate(-846.276 -874.787)" fill="#ffd504"/>
          </g>
          <g id="Group_35" data-name="Group 35" transform="translate(3.164 79.844)">
            <g id="Group_34" data-name="Group 34">
              <path id="Path_20" data-name="Path 20" d="M1161.735,940.8c-.045-.771-.124-1.535-.229-2.291h0l-.007-.031c-.067-.487-.153-.966-.246-1.444-.021-.119-.045-.236-.069-.356-.1-.487-.21-.974-.334-1.453l0-.012c-.124-.475-.265-.945-.411-1.411-.038-.117-.074-.232-.112-.346-.153-.468-.315-.933-.492-1.391l-.019-.052c-.15-.392-.312-.781-.48-1.167l-.038-.084c-.17-.387-.346-.768-.532-1.148l-.017-.033a30.738,30.738,0,0,0-4.315-6.5l-.107-.124c-.253-.291-.513-.575-.776-.857l-.155-.165q-.4-.416-.8-.814c-.05-.05-.1-.1-.153-.148-.281-.272-.57-.542-.864-.807l-.067-.06a32.479,32.479,0,0,0-5.332-3.852l-.107-.064q-.533-.3-1.079-.592l-.151-.079q-.551-.286-1.117-.554l-.1-.048a33.7,33.7,0,0,0-12.2-3.1,23.442,23.442,0,0,1,.329,4.74c-.425,13.67-12.451,24.368-26.855,23.917a27.2,27.2,0,0,1-10.427-2.408,29.154,29.154,0,0,1-22.136,9.537,27.388,27.388,0,0,1-11.279-2.814c-4.609,16.714-22.8,28.833-44.15,28.167-18.334-.573-33.766-10.42-40.022-23.943a1.239,1.239,0,0,0-.105-.258.944.944,0,0,1-.16.279c-3.411,5.993-10.592,10-18.759,9.745-9.2-.289-16.823-5.914-19.1-13.356-4.544,4.239-11.723,6.862-19.7,6.613-12.859-.4-23.15-8.126-23.664-17.465h-.059A17.891,17.891,0,0,1,878,916.139a21.5,21.5,0,0,1,.442-3.664h0a17.968,17.968,0,0,1-.442-4.558c.012-.334.033-.668.06-1a41.888,41.888,0,0,0-2.9,4.1c-.055.086-.108.175-.16.263-.327.535-.64,1.074-.943,1.623-.05.093-.1.184-.151.275a41.468,41.468,0,0,0-1.811,3.807c-.077.181-.148.365-.222.549-.189.473-.368.948-.539,1.43-.072.2-.146.4-.213.6q-.315.92-.587,1.857l-.036.12h0v0c-.169-.017-.339-.024-.508-.036-.253-.019-.5-.043-.764-.05a22.462,22.462,0,0,0-2.27.043l-.043,0q-.523.039-1.038.1l-.143.017c-.31.041-.62.086-.928.136l-.181.033c-.3.052-.59.11-.881.174l-.191.043c-.291.067-.58.138-.866.217l-.174.045c-.3.084-.6.174-.89.272l-.122.038a22.105,22.105,0,0,0-3.907,1.733l-.019.012c-.294.167-.58.339-.867.518l-.133.086c-.246.157-.487.317-.728.484-.06.041-.117.083-.177.126-.222.158-.442.317-.659.484l-.193.151c-.208.162-.415.329-.618.5-.062.055-.127.107-.191.162-.2.174-.4.353-.6.537l-.172.158c-.205.193-.406.394-.6.594-.045.045-.088.088-.131.134-.227.234-.448.472-.664.716l-.036.041q-.7.795-1.317,1.651l-.069.1c-.174.244-.346.492-.511.745-.05.077-.1.158-.148.236-.136.21-.267.42-.394.635-.057.1-.115.2-.172.3-.112.2-.222.4-.329.6-.06.112-.117.227-.174.339-.1.193-.2.389-.289.587-.057.122-.112.241-.167.363-.088.2-.172.394-.255.592-.053.124-.1.251-.153.377-.079.2-.153.4-.227.606-.045.127-.093.253-.136.38-.072.212-.138.429-.205.644-.036.121-.076.239-.11.36-.072.251-.139.506-.2.761-.021.088-.048.174-.069.262q-.118.5-.212,1.017l0,.014c-.091.489-.16.986-.22,1.487-.017.139-.031.277-.045.417-.019.2-.036.394-.05.592-.024.3-.043.606-.052.912A22.23,22.23,0,0,0,867.832,965.9l.072,0c.64,11.616,13.444,21.215,29.423,21.714,9.919.31,18.84-2.943,24.5-8.212,2.823,9.253,12.3,16.239,23.754,16.6,10.148.315,19.079-4.656,23.32-12.11a1.712,1.712,0,0,0,.2-.348,2.408,2.408,0,0,1,.134.315c7.768,16.823,26.957,29.062,49.754,29.773,26.547.831,49.16-14.239,54.893-35.014a34.117,34.117,0,0,0,14.033,3.489c10.582.332,20.325-4.227,27.518-11.855a33.811,33.811,0,0,0,12.967,3c17.9.558,32.859-12.745,33.389-29.735.017-.465.014-.931.007-1.391C1161.782,941.678,1161.761,941.239,1161.735,940.8Z" transform="translate(-846.276 -906.917)" fill="#ffaa01"/>
            </g>
          </g>
          <g id="Group_36" data-name="Group 36" transform="translate(238.925 55.111)" opacity="0.55">
            <path id="Path_21" data-name="Path 21" d="M946.156,908.958a33.46,33.46,0,0,1,16.186-3.532,32.765,32.765,0,0,1,27.84,16.644c-2.6-14.086-15.339-25.01-31-25.5a33.628,33.628,0,0,0-14.12,2.583A57.2,57.2,0,0,1,946.156,908.958Z" transform="translate(-945.06 -896.554)" fill="#fce5e5"/>
          </g>
          <g id="Group_37" data-name="Group 37" transform="translate(285.887 84.664)" opacity="0.55">
            <path id="Path_22" data-name="Path 22" d="M966.525,917.84c.9-.06,1.785-.06,2.687-.031a32.758,32.758,0,0,1,27.84,16.681c-2.592-14.1-15.339-25.046-31-25.535-.439-.014-.876-.022-1.313-.017A29.214,29.214,0,0,1,966.525,917.84Z" transform="translate(-964.737 -908.936)" fill="#fce5e5"/>
          </g>
          <g id="Group_38" data-name="Group 38" transform="translate(3.164 3.162)" opacity="0.6">
            <path id="Path_23" data-name="Path 23" d="M849.45,996.393a22.238,22.238,0,0,1,22.933-21.535c.434.015.85.046,1.275.084a41.95,41.95,0,0,1,41.635-30.382c.728.024,1.454.064,2.179.131a44.564,44.564,0,0,1,57.05-27.983,56.932,56.932,0,0,1,103.578.425c-.174-.652-.355-1.3-.551-1.945a56.942,56.942,0,0,0-106.189-7.334,44.531,44.531,0,0,0-57.05,27.983c-.726-.067-1.453-.108-2.179-.131A41.947,41.947,0,0,0,870.5,966.088c-.425-.041-.84-.072-1.274-.084a22.24,22.24,0,0,0-19.594,33.967A22.469,22.469,0,0,1,849.45,996.393Z" transform="translate(-846.276 -874.787)" fill="#fce5e5"/>
          </g>
          <g id="Group_39" data-name="Group 39" transform="translate(27.812 147.68)" opacity="0.55">
            <path id="Path_24" data-name="Path 24" d="M856.6,935.34c.055.081.1.167.162.248-.007-.081-.017-.162-.022-.244l-.072,0Z" transform="translate(-856.604 -935.34)" fill="#fce5e5"/>
          </g>
          <g id="Group_40" data-name="Group 40">
            <path id="Path_25" data-name="Path 25" d="M1022.859,1063.216q-1.063,0-2.138-.033c-21.466-.671-40.609-11.191-50.2-27.208a29.805,29.805,0,0,1-23.206,9.575c-10.768-.336-20.432-6.179-24.957-14.683-6.286,4.308-14.537,6.571-23.294,6.3-16.255-.508-29.73-9.924-32.131-21.938a25.4,25.4,0,0,1,3.11-50.561,45.013,45.013,0,0,1,43.926-30.289,47.746,47.746,0,0,1,57.59-28.53,60.06,60.06,0,0,1,55.22-32.358,59.387,59.387,0,0,1,26.618,7.156,60.481,60.481,0,0,1,29.017,35.46,59.762,59.762,0,0,1,2.267,11.363,37.15,37.15,0,0,1,13.411-2.043c17.544.549,32.017,13.286,34.255,29.558a36.277,36.277,0,0,1,24.7,10.656A32.909,32.909,0,0,1,1166.783,990c-.585,18.7-17.031,33.413-36.652,32.795a36.925,36.925,0,0,1-12.119-2.417,38.872,38.872,0,0,1-28.365,11.277,37.19,37.19,0,0,1-11.993-2.37C1070.229,1049.352,1047.995,1063.216,1022.859,1063.216Zm-48.871-34.188c7.566,16.258,25.971,27.176,46.931,27.833,24.532.749,46.308-12.983,51.745-32.7a3.164,3.164,0,0,1,4.444-2,30.911,30.911,0,0,0,12.738,3.169c9.3.279,18.236-3.568,25.12-10.864a3.162,3.162,0,0,1,3.611-.709,30.5,30.5,0,0,0,11.754,2.714c.329.012.656.016.983.016,15.7,0,28.683-11.785,29.148-26.687l3.162.1-3.162-.1a26.649,26.649,0,0,0-7.907-19.711,30.006,30.006,0,0,0-20.5-8.79c-.928-.029-1.685-.019-2.379.026a3.162,3.162,0,0,1-3.372-3.024c-.594-14.413-13.072-26.077-28.406-26.556a30.513,30.513,0,0,0-14.661,3.193,3.163,3.163,0,0,1-4.587-2.745,53.785,53.785,0,0,0-79.122-46.06,54.158,54.158,0,0,0-23.456,24.876,3.165,3.165,0,0,1-3.921,1.659,41.367,41.367,0,0,0-53,25.991,3.166,3.166,0,0,1-3.3,2.157c-.618-.057-1.267-.1-1.983-.117a38.7,38.7,0,0,0-38.5,28.086,3.167,3.167,0,0,1-3.337,2.282c-.358-.034-.709-.06-1.076-.072a19.073,19.073,0,1,0-1.194,38.127l.055,0a3.164,3.164,0,0,1,3.077,2.988c.554,10.057,12.134,18.284,26.365,18.728,8.685.262,17-2.485,22.239-7.368a3.164,3.164,0,0,1,5.181,1.391c2.487,8.148,11.052,14.053,20.828,14.358,8.654.26,16.685-3.857,20.475-10.513.031-.055.065-.11.1-.162a3.164,3.164,0,0,1,5.618-.143A4.977,4.977,0,0,1,973.988,1029.028Zm-5.792-.632,0,.007Z" transform="translate(-844.951 -873.462)" fill="#2c3a47"/>
          </g>
        </g>
        <g id="Group_43" data-name="Group 43" transform="translate(93.562 65.902)">
          <g id="Group_42" data-name="Group 42">
            <path id="Path_26" data-name="Path 26" d="M884.153,910.206a.257.257,0,0,1,.181-.251,16.848,16.848,0,0,1,3.976-.707,15.322,15.322,0,0,1,4.15.406,17.447,17.447,0,0,1,3.962,1.523c.253.136.506.272.752.42a11.584,11.584,0,0,1,1.664-3.809,14.931,14.931,0,0,1,6.707-5.275,18.663,18.663,0,0,1,7.981-1.42,14.442,14.442,0,0,1,3.99.747,10.352,10.352,0,0,1,3.537,2.026.741.741,0,0,1-.912,1.165l-.019-.009a10.18,10.18,0,0,0-6.575-1.489,15.716,15.716,0,0,0-6.518,2.033,11.012,11.012,0,0,0-4.46,4.461,7.026,7.026,0,0,0-.313,5.482,2.581,2.581,0,0,1,.131,1.017c.059.1.117.2.177.3a34.083,34.083,0,0,1,1.826,3.685,40.033,40.033,0,0,1,2.4,7.649.258.258,0,0,1-.2.294.255.255,0,0,1-.272-.136l0-.01a38.834,38.834,0,0,0-4.139-6.5,33.087,33.087,0,0,0-2.468-2.787c-.012-.007-2.652-2.762-2.7-2.828-.976-.711-1.7-1.329-2.554-2.034a16.134,16.134,0,0,0-2.988-1.976,13.809,13.809,0,0,0-3.473-1.16,14.224,14.224,0,0,0-3.566-.578h-.019A.242.242,0,0,1,884.153,910.206Z" transform="translate(-884.153 -901.075)" fill="#ffaa01"/>
          </g>
        </g>
        <g id="Group_45" data-name="Group 45" transform="translate(215.029 76.914)">
          <g id="Group_44" data-name="Group 44">
            <path id="Path_27" data-name="Path 27" d="M962.225,915.421a.2.2,0,0,0-.112-.205,12.677,12.677,0,0,0-2.9-.917,11.405,11.405,0,0,0-3.141-.1,13,13,0,0,0-3.108.747c-.2.077-.406.153-.6.239a8.679,8.679,0,0,0-.866-3.007,11.234,11.234,0,0,0-4.492-4.6,14.029,14.029,0,0,0-5.818-1.845,10.848,10.848,0,0,0-3.055.165,7.771,7.771,0,0,0-2.84,1.164.558.558,0,0,0,.566.96l.014,0a7.662,7.662,0,0,1,5.057-.465,11.842,11.842,0,0,1,4.669,2.16,8.3,8.3,0,0,1,2.893,3.768,5.308,5.308,0,0,1-.305,4.127,1.949,1.949,0,0,0-.2.747c-.055.067-.108.138-.16.205a25.294,25.294,0,0,0-1.728,2.573,30.229,30.229,0,0,0-2.542,5.475.188.188,0,0,0,.334.165l0-.007a29.015,29.015,0,0,1,3.73-4.449,24.518,24.518,0,0,1,2.117-1.838c.01,0,2.25-1.8,2.3-1.847.8-.437,1.4-.826,2.107-1.267a12.259,12.259,0,0,1,2.425-1.181,10.334,10.334,0,0,1,2.709-.525,10.662,10.662,0,0,1,2.718-.081l.017,0A.184.184,0,0,0,962.225,915.421Z" transform="translate(-935.048 -905.69)" fill="#ffaa01"/>
          </g>
        </g>
      </g>
    </g>
  </g>
</svg>
