<svg xmlns="http://www.w3.org/2000/svg" xmlns:xlink="http://www.w3.org/1999/xlink" width="800" height="503" viewBox="0 0 800 503">
  <defs>
    <clipPath id="clip-wordmark-whitetransparent">
      <rect width="800" height="503"/>
    </clipPath>
  </defs>
  <g id="wordmark-whitetransparent" clip-path="url(#clip-wordmark-whitetransparent)">
    <path id="Path_36" data-name="Path 36" d="M33-7.8q9.5,0,15.3-6.4L53.5-8a22.384,22.384,0,0,1-8.85,6.4A31.151,31.151,0,0,1,32.7.6,31.3,31.3,0,0,1,17.8-2.85,24.606,24.606,0,0,1,7.75-12.5a27.667,27.667,0,0,1-3.55-14A28.1,28.1,0,0,1,7.65-40.4a24.715,24.715,0,0,1,9.5-9.65A27.062,27.062,0,0,1,30.8-53.5a26.7,26.7,0,0,1,13.1,3.25,24.527,24.527,0,0,1,9.4,9.15,26.852,26.852,0,0,1,3.6,13.6L14.8-19.3a16.347,16.347,0,0,0,6.75,8.5A21.006,21.006,0,0,0,33-7.8ZM30.8-45.4a17.456,17.456,0,0,0-8.95,2.3,15.932,15.932,0,0,0-6.15,6.45A20.3,20.3,0,0,0,13.5-27v1l33.9-6.4a16.211,16.211,0,0,0-5.8-9.4A16.752,16.752,0,0,0,30.8-45.4ZM90.4.6A29.434,29.434,0,0,1,75.95-2.9,25.645,25.645,0,0,1,66-12.55,27.1,27.1,0,0,1,62.4-26.5,27.1,27.1,0,0,1,66-40.45a25.292,25.292,0,0,1,9.95-9.6A29.777,29.777,0,0,1,90.4-53.5a27.738,27.738,0,0,1,12.85,2.9A20.656,20.656,0,0,1,112-42.2l-7.3,4.7a16.309,16.309,0,0,0-6.2-5.7,17.684,17.684,0,0,0-8.2-1.9,18.96,18.96,0,0,0-9.35,2.3,16.39,16.39,0,0,0-6.5,6.55A19.814,19.814,0,0,0,72.1-26.5a20.024,20.024,0,0,0,2.35,9.85,16.39,16.39,0,0,0,6.5,6.55A18.96,18.96,0,0,0,90.3-7.8a17.684,17.684,0,0,0,8.2-1.9,16.309,16.309,0,0,0,6.2-5.7l7.3,4.6a20.969,20.969,0,0,1-8.75,8.45A27.35,27.35,0,0,1,90.4.6Zm52.9,0a28.74,28.74,0,0,1-14.2-3.5,25.382,25.382,0,0,1-9.85-9.65A27.393,27.393,0,0,1,115.7-26.5a27.393,27.393,0,0,1,3.55-13.95,25.032,25.032,0,0,1,9.85-9.6,29.072,29.072,0,0,1,14.2-3.45,28.787,28.787,0,0,1,14.15,3.45,25.122,25.122,0,0,1,9.8,9.6A27.393,27.393,0,0,1,170.8-26.5a27.393,27.393,0,0,1-3.55,13.95,25.477,25.477,0,0,1-9.8,9.65A28.458,28.458,0,0,1,143.3.6Zm0-8.4a17.9,17.9,0,0,0,9.15-2.35,16.588,16.588,0,0,0,6.35-6.6,20.16,20.16,0,0,0,2.3-9.75,20.16,20.16,0,0,0-2.3-9.75,16.246,16.246,0,0,0-6.35-6.55,18.2,18.2,0,0,0-9.15-2.3,18.2,18.2,0,0,0-9.15,2.3,16.581,16.581,0,0,0-6.4,6.55,19.814,19.814,0,0,0-2.35,9.75,19.814,19.814,0,0,0,2.35,9.75,16.934,16.934,0,0,0,6.4,6.6A17.9,17.9,0,0,0,143.3-7.8Zm64.1-45.7q10.1,0,16.05,5.85T229.4-30.5V0h-9.6V-29.4q0-7.7-3.7-11.6t-10.6-3.9q-7.8,0-12.3,4.55T188.7-27.3V0h-9.6V-53h9.2v8a18.659,18.659,0,0,1,7.85-6.3A27.431,27.431,0,0,1,207.4-53.5ZM265.2.6A28.74,28.74,0,0,1,251-2.9a25.382,25.382,0,0,1-9.85-9.65A27.393,27.393,0,0,1,237.6-26.5a27.393,27.393,0,0,1,3.55-13.95,25.032,25.032,0,0,1,9.85-9.6,29.072,29.072,0,0,1,14.2-3.45,28.787,28.787,0,0,1,14.15,3.45,25.123,25.123,0,0,1,9.8,9.6A27.393,27.393,0,0,1,292.7-26.5a27.393,27.393,0,0,1-3.55,13.95,25.477,25.477,0,0,1-9.8,9.65A28.459,28.459,0,0,1,265.2.6Zm0-8.4a17.9,17.9,0,0,0,9.15-2.35,16.588,16.588,0,0,0,6.35-6.6A20.16,20.16,0,0,0,283-26.5a20.16,20.16,0,0,0-2.3-9.75,16.246,16.246,0,0,0-6.35-6.55,18.2,18.2,0,0,0-9.15-2.3,18.2,18.2,0,0,0-9.15,2.3,16.581,16.581,0,0,0-6.4,6.55,19.814,19.814,0,0,0-2.35,9.75,19.814,19.814,0,0,0,2.35,9.75,16.934,16.934,0,0,0,6.4,6.6A17.9,17.9,0,0,0,265.2-7.8ZM367.3-53.5q10,0,15.85,5.8T389-30.5V0h-9.6V-29.4q0-7.7-3.55-11.6T365.7-44.9q-7.3,0-11.6,4.55T349.8-27.3V0h-9.6V-29.4q0-7.7-3.55-11.6T326.5-44.9q-7.3,0-11.6,4.55T310.6-27.3V0H301V-53h9.2v7.9a18.6,18.6,0,0,1,7.6-6.25,25.452,25.452,0,0,1,10.7-2.15,23.467,23.467,0,0,1,11,2.5,17.374,17.374,0,0,1,7.4,7.3,20.305,20.305,0,0,1,8.35-7.2A27.212,27.212,0,0,1,367.3-53.5Zm34.4.5h9.6V0h-9.6Zm4.8-10.2a6.4,6.4,0,0,1-4.65-1.8A5.9,5.9,0,0,1,400-69.4a6.067,6.067,0,0,1,1.85-4.45,6.306,6.306,0,0,1,4.65-1.85,6.5,6.5,0,0,1,4.65,1.75A5.744,5.744,0,0,1,413-69.6a6.184,6.184,0,0,1-1.85,4.55A6.306,6.306,0,0,1,406.5-63.2ZM463.9-7.9V0H419.5V-6.2l31.3-38.9H420.1V-53h43v6.3L431.8-7.9Zm31.7.1q9.5,0,15.3-6.4L516.1-8a22.385,22.385,0,0,1-8.85,6.4A31.151,31.151,0,0,1,495.3.6a31.3,31.3,0,0,1-14.9-3.45,24.606,24.606,0,0,1-10.05-9.65,27.667,27.667,0,0,1-3.55-14,28.1,28.1,0,0,1,3.45-13.9,24.715,24.715,0,0,1,9.5-9.65A27.062,27.062,0,0,1,493.4-53.5a26.7,26.7,0,0,1,13.1,3.25,24.527,24.527,0,0,1,9.4,9.15,26.852,26.852,0,0,1,3.6,13.6l-42.1,8.2a16.347,16.347,0,0,0,6.75,8.5A21.006,21.006,0,0,0,495.6-7.8Zm-2.2-37.6a17.456,17.456,0,0,0-8.95,2.3,15.932,15.932,0,0,0-6.15,6.45A20.3,20.3,0,0,0,476.1-27v1L510-32.4a16.211,16.211,0,0,0-5.8-9.4A16.752,16.752,0,0,0,493.4-45.4ZM530.2.6a6.631,6.631,0,0,1-4.8-1.95,6.619,6.619,0,0,1-2-4.95,6.5,6.5,0,0,1,2-4.85,6.631,6.631,0,0,1,4.8-1.95,6.384,6.384,0,0,1,4.7,1.9,6.632,6.632,0,0,1,1.9,4.9,6.707,6.707,0,0,1-1.95,4.95A6.348,6.348,0,0,1,530.2.6Z" transform="translate(129 287.5)" fill="#fff" stroke="#fff" stroke-width="2"/>
  </g>
</svg>
